<?xml version="1.0" encoding="UTF-8" standalone="no"?>
<svg
   xmlns:osb="http://www.openswatchbook.org/uri/2009/osb"
   xmlns:dc="http://purl.org/dc/elements/1.1/"
   xmlns:cc="http://creativecommons.org/ns#"
   xmlns:rdf="http://www.w3.org/1999/02/22-rdf-syntax-ns#"
   xmlns:svg="http://www.w3.org/2000/svg"
   xmlns="http://www.w3.org/2000/svg"
   xmlns:xlink="http://www.w3.org/1999/xlink"
   xmlns:sodipodi="http://sodipodi.sourceforge.net/DTD/sodipodi-0.dtd"
   xmlns:inkscape="http://www.inkscape.org/namespaces/inkscape"
   width="11.5in"
   height="23.5in"
   viewBox="0 0 292.10001 596.90003"
   version="1.1"
   id="svg861"
   inkscape:version="1.0.1 (3bc2e813f5, 2020-09-07)"
   sodipodi:docname="lpBoards.svg">
  <defs
     id="defs855">
    <linearGradient
       id="linearGradient3016"
       osb:paint="solid">
      <stop
         style="stop-color:#0000ff;stop-opacity:1;"
         offset="0"
         id="stop3014" />
    </linearGradient>
    <rect
       x="296.66919"
       y="8.5526247"
       width="319.65436"
       height="143.25647"
       id="rect2007" />
  </defs>
  <sodipodi:namedview
     id="base"
     pagecolor="#ffffff"
     bordercolor="#666666"
     borderopacity="1.0"
     inkscape:pageopacity="0.0"
     inkscape:pageshadow="2"
     inkscape:zoom="2"
     inkscape:cx="299.01765"
     inkscape:cy="67.022776"
     inkscape:document-units="in"
     inkscape:current-layer="layer2"
     inkscape:document-rotation="0"
     showgrid="false"
     units="in"
     inkscape:window-width="1366"
     inkscape:window-height="705"
     inkscape:window-x="1358"
     inkscape:window-y="115"
     inkscape:window-maximized="1"
     inkscape:snap-nodes="true"
     inkscape:snap-bbox="true"
     inkscape:bbox-paths="true"
     inkscape:snap-global="true"
     inkscape:object-paths="true"
     inkscape:object-nodes="true"
     inkscape:snap-intersection-paths="true"
     inkscape:bbox-nodes="true"
     inkscape:snap-bbox-midpoints="true"
     inkscape:snap-bbox-edge-midpoints="true"
     inkscape:snap-smooth-nodes="true"
     inkscape:snap-midpoints="true">
    <inkscape:grid
       type="xygrid"
       id="grid969" />
  </sodipodi:namedview>
  <metadata
     id="metadata858">
    <rdf:RDF>
      <cc:Work
         rdf:about="">
        <dc:format>image/svg+xml</dc:format>
        <dc:type
           rdf:resource="http://purl.org/dc/dcmitype/StillImage" />
        <dc:title />
      </cc:Work>
    </rdf:RDF>
  </metadata>
  <g
     inkscape:label="Layer 1"
     inkscape:groupmode="layer"
     id="layer1">
    <text
       xml:space="preserve"
       id="text2005"
       style="font-style:normal;font-weight:normal;font-size:10.5833px;line-height:125%;font-family:sans-serif;letter-spacing:0px;word-spacing:0px;white-space:pre;shape-inside:url(#rect2007);fill:#00ff00;fill-opacity:1;stroke:none;stroke-width:0.4;stroke-linecap:butt;stroke-linejoin:miter;stroke-miterlimit:4;stroke-dasharray:none;stroke-opacity:1;"
       transform="translate(8.4137009,-80.683927)"><tspan
         x="296.66992"
         y="17.916474"><tspan
           style="fill:#00ff00;stroke-width:0.4;stroke-miterlimit:4;stroke-dasharray:none">Standard layout size = 11.5&quot;x23.5&quot;; include 1/4&quot;margin
</tspan></tspan><tspan
         x="296.66992"
         y="31.145598"><tspan
           style="fill:#00ff00;stroke-width:0.4;stroke-miterlimit:4;stroke-dasharray:none">Make piece OD ~5.5&quot; square (139.7mm), but with enough </tspan></tspan><tspan
         x="296.66992"
         y="44.374722"><tspan
           style="fill:#00ff00;stroke-width:0.4;stroke-miterlimit:4;stroke-dasharray:none">room to leave a tab 
</tspan></tspan><tspan
         x="296.66992"
         y="57.603844"><tspan
           style="fill:#00ff00;stroke-width:0.4;stroke-miterlimit:4;stroke-dasharray:none">
</tspan></tspan><tspan
         x="296.66992"
         y="70.83297"><tspan
           style="fill:#00ff00;stroke-width:0.4;stroke-miterlimit:4;stroke-dasharray:none">Use Path-&gt;Difference to remove a piece of the lines
</tspan></tspan><tspan
         x="296.66992"
         y="84.062096"><tspan
           style="fill:#00ff00;stroke-width:0.4;stroke-miterlimit:4;stroke-dasharray:none">
</tspan></tspan><tspan
         x="296.66992"
         y="97.291222"><tspan
           style="fill:#00ff00;stroke-width:0.4;stroke-miterlimit:4;stroke-dasharray:none">Use Path-&gt;Simplify to be able to change width of path</tspan></tspan></text>
  </g>
  <g
     inkscape:groupmode="layer"
     id="layer3"
     inkscape:label="Layer 3">
    <path
       id="rect971"
       style="fill:none;fill-rule:evenodd;stroke:#0000ff;stroke-width:0.0508;stroke-linecap:butt;stroke-linejoin:miter;stroke-opacity:1;stroke-miterlimit:4;stroke-dasharray:none"
       d="m 24.018472,23.268744 c 5.237331,0 10.474661,0 15.711992,0 0.756527,0.495741 0.243787,1.702744 0.394004,2.52501 0,4.526995 0,9.05399 0,13.580985 -0.49574,0.756529 -1.702744,0.243788 -2.52501,0.394005 -4.526995,0 -9.053991,0 -13.580986,0 -0.756527,-0.495742 -0.243787,-1.702744 -0.394004,-2.525011 0,-4.526995 0,-9.05399 0,-13.580985 l 0.115148,-0.278857 z" />
  </g>
  <g
     inkscape:groupmode="layer"
     id="layer2"
     inkscape:label="Layer 2">
    <rect
       style="fill:none;fill-rule:evenodd;stroke:#00ff00;stroke-width:0.180958px;stroke-linecap:butt;stroke-linejoin:miter;stroke-opacity:1"
       id="rect48"
       width="4.4375353"
       height="4.1565666"
       x="143.83124"
       y="143.83124"
       ry="1.1271235"
       rx="0" />
    <rect
       style="fill:none;fill-rule:evenodd;stroke:#00ff00;stroke-width:0.180958px;stroke-linecap:butt;stroke-linejoin:miter;stroke-opacity:1"
       id="rect48-2"
       width="4.4375353"
       height="4.1565666"
       x="143.83124"
       y="283.97418"
       ry="1.1271236"
       rx="0" />
    <rect
       style="fill:none;fill-rule:evenodd;stroke:#00ff00;stroke-width:0.180958px;stroke-linecap:butt;stroke-linejoin:miter;stroke-opacity:1"
       id="rect48-2-3"
       width="4.4375353"
       height="4.1565666"
       x="143.83122"
       y="424.1171"
       ry="1.1271236"
       rx="0" />
    <rect
       style="fill:none;fill-rule:evenodd;stroke:#00ff00;stroke-width:0.180958px;stroke-linecap:butt;stroke-linejoin:miter;stroke-opacity:1"
       id="rect48-2-5"
       width="4.4375353"
       height="4.1565666"
       x="143.83121"
       y="564.26001"
       ry="1.1271236"
       rx="0" />
    <path
       style="display:none;fill:none;fill-rule:evenodd;stroke:#000000;stroke-width:0.264583px;stroke-linecap:butt;stroke-linejoin:miter;stroke-opacity:1"
       d="M 143.83124,143.83124 7.8448756,7.8448756"
       id="path547" />
    <path
       style="display:none;fill:none;fill-rule:evenodd;stroke:#000000;stroke-width:0.264583px;stroke-linecap:butt;stroke-linejoin:miter;stroke-opacity:1"
       d="M 7.8448728,143.83124 143.83124,7.8448713"
       id="path547-8" />
    <use
       x="0"
       y="0"
       inkscape:tiled-clone-of="#rect971"
       xlink:href="#rect971"
       transform="matrix(1.0038625,0,0,1.0038625,-0.35884644,21.519292)"
       id="use499"
       width="100%"
       height="100%"
       style="stroke-width:0.0506045;stroke-miterlimit:4;stroke-dasharray:none" />
    <use
       x="0"
       y="0"
       inkscape:tiled-clone-of="#rect971"
       xlink:href="#rect971"
       transform="matrix(1.0038625,0,0,1.0038625,-0.35884644,43.39743)"
       id="use501"
       width="100%"
       height="100%"
       style="stroke-width:0.0506045;stroke-miterlimit:4;stroke-dasharray:none" />
    <use
       x="0"
       y="0"
       inkscape:tiled-clone-of="#rect971"
       xlink:href="#rect971"
       transform="matrix(1.0038625,0,0,1.0038625,-0.35884644,65.275569)"
       id="use503"
       width="100%"
       height="100%"
       style="stroke-width:0.0506045;stroke-miterlimit:4;stroke-dasharray:none" />
    <use
       x="0"
       y="0"
       inkscape:tiled-clone-of="#rect971"
       xlink:href="#rect971"
       transform="matrix(1.0038625,0,0,1.0038625,-0.35884644,87.153707)"
       id="use505"
       width="100%"
       height="100%"
       style="stroke-width:0.0506045;stroke-miterlimit:4;stroke-dasharray:none;stroke:#000080" />
    <path
       id="use507"
       style="fill:none;fill-rule:evenodd;stroke:#0000ff;stroke-width:0.0508;stroke-linecap:butt;stroke-linejoin:miter;stroke-miterlimit:4;stroke-dasharray:none;stroke-opacity:1"
       d="m 45.630534,22.999773 c 5.25756,0 10.51512,0 15.77268,0 0.562271,0.06932 0.356587,0.718525 0.395526,1.109534 0,5.019558 0,10.039115 0,15.058672 -0.06932,0.562272 -0.718525,0.356587 -1.109534,0.395526 -5.019558,0 -10.039115,0 -15.058672,0 -0.562271,-0.06932 -0.356587,-0.718525 -0.395526,-1.109534 0,-5.019558 0,-10.039115 0,-15.058672 -0.0057,-0.212071 0.183455,-0.401225 0.395526,-0.395526 z" />
    <use
       x="0"
       y="0"
       inkscape:tiled-clone-of="#rect971"
       xlink:href="#rect971"
       transform="matrix(1.0038625,0,0,1.0038625,21.519292,21.519292)"
       id="use509"
       width="100%"
       height="100%"
       style="stroke-width:0.0506045;stroke-miterlimit:4;stroke-dasharray:none" />
    <use
       x="0"
       y="0"
       inkscape:tiled-clone-of="#rect971"
       xlink:href="#rect971"
       transform="matrix(1.0038625,0,0,1.0038625,21.519292,43.39743)"
       id="use511"
       width="100%"
       height="100%"
       style="stroke-width:0.0506045;stroke-miterlimit:4;stroke-dasharray:none" />
    <use
       x="0"
       y="0"
       inkscape:tiled-clone-of="#rect971"
       xlink:href="#rect971"
       transform="matrix(1.0038625,0,0,1.0038625,21.519292,65.275569)"
       id="use513"
       width="100%"
       height="100%"
       style="stroke-width:0.0506045;stroke-miterlimit:4;stroke-dasharray:none" />
    <use
       x="0"
       y="0"
       inkscape:tiled-clone-of="#rect971"
       xlink:href="#rect971"
       transform="matrix(1.0038625,0,0,1.0038625,21.519292,87.153707)"
       id="use515"
       width="100%"
       height="100%"
       style="stroke-width:0.0506045;stroke-miterlimit:4;stroke-dasharray:none" />
    <path
       id="use517"
       style="fill:none;fill-rule:evenodd;stroke:#0000ff;stroke-width:0.0508;stroke-linecap:butt;stroke-linejoin:miter;stroke-miterlimit:4;stroke-dasharray:none;stroke-opacity:1"
       d="m 67.50867,22.999773 c 5.307947,0.02066 10.624112,-0.04132 15.926923,0.03099 0.505073,0.614405 0.121373,1.600735 0.241283,2.370191 -0.02066,4.639396 0.04132,9.287011 -0.03099,13.921271 -0.614405,0.505073 -1.600735,0.121373 -2.370191,0.241283 -4.639396,-0.02066 -9.287011,0.04132 -13.921271,-0.03099 -0.505073,-0.614405 -0.121373,-1.600735 -0.241283,-2.370191 0.02066,-4.639396 -0.04132,-9.287011 0.03099,-13.921271 0.05866,-0.143887 0.208886,-0.243774 0.364539,-0.241283 z" />
    <use
       x="0"
       y="0"
       inkscape:tiled-clone-of="#rect971"
       xlink:href="#rect971"
       transform="matrix(1.0038625,0,0,1.0038625,43.39743,21.519292)"
       id="use519"
       width="100%"
       height="100%"
       style="stroke-width:0.0506045;stroke-miterlimit:4;stroke-dasharray:none" />
    <use
       x="0"
       y="0"
       inkscape:tiled-clone-of="#rect971"
       xlink:href="#rect971"
       transform="matrix(1.0038625,0,0,1.0038625,43.39743,43.39743)"
       id="use521"
       width="100%"
       height="100%"
       style="stroke-width:0.0506045;stroke-miterlimit:4;stroke-dasharray:none" />
    <use
       x="0"
       y="0"
       inkscape:tiled-clone-of="#rect971"
       xlink:href="#rect971"
       transform="matrix(1.0038625,0,0,1.0038625,43.39743,65.275569)"
       id="use523"
       width="100%"
       height="100%"
       style="stroke-width:0.0506045;stroke-miterlimit:4;stroke-dasharray:none" />
    <use
       x="0"
       y="0"
       inkscape:tiled-clone-of="#rect971"
       xlink:href="#rect971"
       transform="matrix(1.0038625,0,0,1.0038625,43.39743,87.153707)"
       id="use525"
       width="100%"
       height="100%"
       style="stroke-width:0.0506045;stroke-miterlimit:4;stroke-dasharray:none" />
    <use
       x="0"
       y="0"
       inkscape:tiled-clone-of="#rect971"
       xlink:href="#rect971"
       transform="matrix(1.0038625,0,0,1.0038625,65.275569,-0.35884649)"
       id="use527"
       width="100%"
       height="100%"
       style="stroke-width:0.0506045;stroke-miterlimit:4;stroke-dasharray:none" />
    <use
       x="0"
       y="0"
       inkscape:tiled-clone-of="#rect971"
       xlink:href="#rect971"
       transform="matrix(1.0038625,0,0,1.0038625,65.275569,21.519292)"
       id="use529"
       width="100%"
       height="100%"
       style="stroke-width:0.0506045;stroke-miterlimit:4;stroke-dasharray:none;stroke:#0000ff;stroke-opacity:1" />
    <use
       x="0"
       y="0"
       inkscape:tiled-clone-of="#rect971"
       xlink:href="#rect971"
       transform="matrix(1.0038625,0,0,1.0038625,65.275569,43.39743)"
       id="use531"
       width="100%"
       height="100%"
       style="stroke-width:0.0506045;stroke-miterlimit:4;stroke-dasharray:none" />
    <use
       x="0"
       y="0"
       inkscape:tiled-clone-of="#rect971"
       xlink:href="#rect971"
       transform="matrix(1.0038625,0,0,1.0038625,65.275569,65.275569)"
       id="use533"
       width="100%"
       height="100%"
       style="stroke-width:0.0506045;stroke-miterlimit:4;stroke-dasharray:none" />
    <use
       x="0"
       y="0"
       inkscape:tiled-clone-of="#rect971"
       xlink:href="#rect971"
       transform="matrix(1.0038625,0,0,1.0038625,65.275569,87.153707)"
       id="use535"
       width="100%"
       height="100%"
       style="stroke-width:0.0506045;stroke-miterlimit:4;stroke-dasharray:none" />
    <use
       x="0"
       y="0"
       inkscape:tiled-clone-of="#rect971"
       xlink:href="#rect971"
       transform="matrix(1.0038625,0,0,1.0038625,87.153707,-0.35884649)"
       id="use537"
       width="100%"
       height="100%"
       style="stroke-width:0.0506045;stroke-miterlimit:4;stroke-dasharray:none" />
    <use
       x="0"
       y="0"
       inkscape:tiled-clone-of="#rect971"
       xlink:href="#rect971"
       transform="matrix(1.0038625,0,0,1.0038625,87.153707,21.519292)"
       id="use539"
       width="100%"
       height="100%"
       style="stroke-width:0.0506045;stroke-miterlimit:4;stroke-dasharray:none" />
    <use
       x="0"
       y="0"
       inkscape:tiled-clone-of="#rect971"
       xlink:href="#rect971"
       transform="matrix(1.0038625,0,0,1.0038625,87.153707,43.39743)"
       id="use541"
       width="100%"
       height="100%"
       style="stroke-width:0.0506045;stroke-miterlimit:4;stroke-dasharray:none" />
    <use
       x="0"
       y="0"
       inkscape:tiled-clone-of="#rect971"
       xlink:href="#rect971"
       transform="matrix(1.0038625,0,0,1.0038625,87.153707,65.275569)"
       id="use543"
       width="100%"
       height="100%"
       style="stroke-width:0.0506045;stroke-miterlimit:4;stroke-dasharray:none" />
    <use
       x="0"
       y="0"
       inkscape:tiled-clone-of="#rect971"
       xlink:href="#rect971"
       transform="matrix(1.0038625,0,0,1.0038625,87.153707,87.153707)"
       id="use545"
       width="100%"
       height="100%"
       style="stroke-width:0.0506045;stroke-miterlimit:4;stroke-dasharray:none" />
    <path
       id="rect913"
       style="fill:none;fill-rule:evenodd;stroke:#0000ff;stroke-width:0.0508;stroke-linecap:butt;stroke-linejoin:round;stroke-miterlimit:4;stroke-dasharray:none;stroke-opacity:1"
       d="M 10.116097,6.2856097 H 139.99976 c 2.12209,0 3.83048,1.7083918 3.83048,3.8304753 V 139.99975 c 0,2.12208 -1.70839,3.83048 -3.83048,3.83048 H 10.116097 c -2.1220826,0 -3.8304744,-1.7084 -3.8304744,-3.83048 V 10.116085 c 0,-2.1220835 1.7083918,-3.8304753 3.8304744,-3.8304753 z" />
    <path
       id="rect3022"
       style="fill:#0000ff;fill-rule:evenodd;stroke:#000000;stroke-width:0;stroke-linecap:butt;stroke-linejoin:miter;stroke-miterlimit:1;stroke-dasharray:none;stroke-opacity:1"
       d="m 72.412098,4.8215378 h 5.291667 c 0,0 0,0 0,0 v 2.8773439 c 0,0 0,0 0,0 h -5.291667 c 0,0 0,0 0,0 V 4.8215378 c 0,0 0,0 0,0 z" />
    <rect
       style="fill:#0000ff;fill-rule:evenodd;stroke:#000000;stroke-width:0.264583px;stroke-linecap:butt;stroke-linejoin:miter;stroke-opacity:1"
       id="rect3022-4"
       width="5.291667"
       height="2.8773439"
       x="73.942291"
       y="-144.4855"
       ry="4.6999529e-16"
       transform="rotate(89.388827)"
       inkscape:transform-center-x="2.3520396"
       inkscape:transform-center-y="-3.1967039" />
    <rect
       style="fill:#0000ff;fill-rule:evenodd;stroke:#000000;stroke-width:0.264583px;stroke-linecap:butt;stroke-linejoin:miter;stroke-opacity:1"
       id="rect3022-7"
       width="5.291667"
       height="2.8773439"
       x="72.412094"
       y="142.41696"
       ry="4.6999529e-16" />
    <rect
       style="fill:#0000ff;fill-rule:evenodd;stroke:#000000;stroke-width:0.264583px;stroke-linecap:butt;stroke-linejoin:miter;stroke-opacity:1"
       id="rect3022-4-7"
       width="5.291667"
       height="2.8773439"
       x="72.474594"
       y="-6.897912"
       ry="4.6999529e-16"
       transform="rotate(89.388827)"
       inkscape:transform-center-x="2.3520396"
       inkscape:transform-center-y="-3.1967039" />
    <path
       id="rect971-6"
       style="fill:none;fill-rule:evenodd;stroke:#0000ff;stroke-width:0.0508;stroke-linecap:butt;stroke-linejoin:miter;stroke-miterlimit:4;stroke-dasharray:none;stroke-opacity:1"
       d="m 26.748045,188.45251 c 5.237331,0 10.474662,0 15.711991,0 0.756529,0.49574 0.243787,1.70274 0.394005,2.52501 0,4.52699 0,9.05399 0,13.58098 -0.49574,0.75653 -1.702742,0.24379 -2.525009,0.39401 -4.526995,0 -9.053992,0 -13.580987,0 -0.756527,-0.49574 -0.243786,-1.70274 -0.394004,-2.52501 0,-4.527 0,-9.05399 0,-13.58099 l 0.115148,-0.27885 z" />
    <use
       x="0"
       y="0"
       inkscape:tiled-clone-of="#rect971-6"
       xlink:href="#rect971-6"
       transform="matrix(1.0038625,0,0,1.0038625,-0.36939009,20.881272)"
       id="use499-1"
       width="100%"
       height="100%"
       style="stroke-width:0.0506045;stroke-miterlimit:4;stroke-dasharray:none" />
    <use
       x="0"
       y="0"
       inkscape:tiled-clone-of="#rect971-6"
       xlink:href="#rect971-6"
       transform="matrix(1.0038625,0,0,1.0038625,-0.36939009,42.759412)"
       id="use501-2"
       width="100%"
       height="100%"
       style="stroke-width:0.0506045;stroke-miterlimit:4;stroke-dasharray:none" />
    <use
       x="0"
       y="0"
       inkscape:tiled-clone-of="#rect971-6"
       xlink:href="#rect971-6"
       transform="matrix(1.0038625,0,0,1.0038625,-0.36939009,64.63754)"
       id="use503-9"
       width="100%"
       height="100%"
       style="stroke-width:0.0506045;stroke-miterlimit:4;stroke-dasharray:none" />
    <use
       x="0"
       y="0"
       inkscape:tiled-clone-of="#rect971-6"
       xlink:href="#rect971-6"
       transform="matrix(1.0038625,0,0,1.0038625,-0.36939009,86.51568)"
       id="use505-5"
       width="100%"
       height="100%"
       style="stroke:#000080;stroke-width:0.0506045;stroke-miterlimit:4;stroke-dasharray:none" />
    <path
       id="use507-4"
       style="fill:none;fill-rule:evenodd;stroke:#0000ff;stroke-width:0.0508;stroke-linecap:butt;stroke-linejoin:miter;stroke-miterlimit:4;stroke-dasharray:none;stroke-opacity:1"
       d="m 48.360107,188.18354 c 5.257561,0 10.515121,0 15.772681,0 0.56227,0.0693 0.35659,0.71852 0.39553,1.10953 0,5.01956 0,10.03912 0,15.05867 -0.0693,0.56228 -0.71853,0.35659 -1.10954,0.39553 -5.01956,0 -10.03912,0 -15.058671,0 -0.562271,-0.0693 -0.356587,-0.71853 -0.395525,-1.10953 0,-5.01956 0,-10.03912 0,-15.05868 -0.0057,-0.21207 0.183454,-0.40122 0.395525,-0.39552 z" />
    <use
       x="0"
       y="0"
       inkscape:tiled-clone-of="#rect971-6"
       xlink:href="#rect971-6"
       transform="matrix(1.0038625,0,0,1.0038625,21.508751,20.881272)"
       id="use509-9"
       width="100%"
       height="100%"
       style="stroke-width:0.0506045;stroke-miterlimit:4;stroke-dasharray:none" />
    <use
       x="0"
       y="0"
       inkscape:tiled-clone-of="#rect971-6"
       xlink:href="#rect971-6"
       transform="matrix(1.0038625,0,0,1.0038625,21.508751,42.759412)"
       id="use511-3"
       width="100%"
       height="100%"
       style="stroke-width:0.0506045;stroke-miterlimit:4;stroke-dasharray:none" />
    <use
       x="0"
       y="0"
       inkscape:tiled-clone-of="#rect971-6"
       xlink:href="#rect971-6"
       transform="matrix(1.0038625,0,0,1.0038625,21.508751,64.63754)"
       id="use513-6"
       width="100%"
       height="100%"
       style="stroke-width:0.0506045;stroke-miterlimit:4;stroke-dasharray:none" />
    <use
       x="0"
       y="0"
       inkscape:tiled-clone-of="#rect971-6"
       xlink:href="#rect971-6"
       transform="matrix(1.0038625,0,0,1.0038625,21.508751,86.51568)"
       id="use515-6"
       width="100%"
       height="100%"
       style="stroke-width:0.0506045;stroke-miterlimit:4;stroke-dasharray:none" />
    <path
       id="use517-0"
       style="fill:none;fill-rule:evenodd;stroke:#0000ff;stroke-width:0.0508;stroke-linecap:butt;stroke-linejoin:miter;stroke-miterlimit:4;stroke-dasharray:none;stroke-opacity:1"
       d="m 70.238248,188.18354 c 5.30794,0.0207 10.62411,-0.0413 15.92692,0.031 0.50507,0.6144 0.12137,1.60073 0.24128,2.37019 -0.0207,4.63939 0.0413,9.28701 -0.031,13.92127 -0.61441,0.50507 -1.60074,0.12137 -2.37019,0.24128 -4.6394,-0.0207 -9.28701,0.0413 -13.92127,-0.031 -0.50508,-0.6144 -0.12137,-1.60073 -0.24129,-2.37019 0.0207,-4.63939 -0.0413,-9.28701 0.031,-13.92127 0.0587,-0.14389 0.20889,-0.24377 0.36454,-0.24128 z" />
    <use
       x="0"
       y="0"
       inkscape:tiled-clone-of="#rect971-6"
       xlink:href="#rect971-6"
       transform="matrix(1.0038625,0,0,1.0038625,43.38689,20.881272)"
       id="use519-3"
       width="100%"
       height="100%"
       style="stroke-width:0.0506045;stroke-miterlimit:4;stroke-dasharray:none" />
    <use
       x="0"
       y="0"
       inkscape:tiled-clone-of="#rect971-6"
       xlink:href="#rect971-6"
       transform="matrix(1.0038625,0,0,1.0038625,43.38689,42.759412)"
       id="use521-8"
       width="100%"
       height="100%"
       style="stroke-width:0.0506045;stroke-miterlimit:4;stroke-dasharray:none" />
    <use
       x="0"
       y="0"
       inkscape:tiled-clone-of="#rect971-6"
       xlink:href="#rect971-6"
       transform="matrix(1.0038625,0,0,1.0038625,43.38689,64.63754)"
       id="use523-0"
       width="100%"
       height="100%"
       style="stroke-width:0.0506045;stroke-miterlimit:4;stroke-dasharray:none" />
    <use
       x="0"
       y="0"
       inkscape:tiled-clone-of="#rect971-6"
       xlink:href="#rect971-6"
       transform="matrix(1.0038625,0,0,1.0038625,43.38689,86.51568)"
       id="use525-9"
       width="100%"
       height="100%"
       style="stroke-width:0.0506045;stroke-miterlimit:4;stroke-dasharray:none" />
    <use
       x="0"
       y="0"
       inkscape:tiled-clone-of="#rect971-6"
       xlink:href="#rect971-6"
       transform="matrix(1.0038625,0,0,1.0038625,65.26503,-0.99686672)"
       id="use527-9"
       width="100%"
       height="100%"
       style="stroke-width:0.0506045;stroke-miterlimit:4;stroke-dasharray:none" />
    <use
       x="0"
       y="0"
       inkscape:tiled-clone-of="#rect971-6"
       xlink:href="#rect971-6"
       transform="matrix(1.0038625,0,0,1.0038625,65.26503,20.881272)"
       id="use529-3"
       width="100%"
       height="100%"
       style="stroke:#0000ff;stroke-width:0.0506045;stroke-miterlimit:4;stroke-dasharray:none;stroke-opacity:1" />
    <use
       x="0"
       y="0"
       inkscape:tiled-clone-of="#rect971-6"
       xlink:href="#rect971-6"
       transform="matrix(1.0038625,0,0,1.0038625,65.26503,42.759412)"
       id="use531-9"
       width="100%"
       height="100%"
       style="stroke-width:0.0506045;stroke-miterlimit:4;stroke-dasharray:none" />
    <use
       x="0"
       y="0"
       inkscape:tiled-clone-of="#rect971-6"
       xlink:href="#rect971-6"
       transform="matrix(1.0038625,0,0,1.0038625,65.26503,64.63754)"
       id="use533-8"
       width="100%"
       height="100%"
       style="stroke-width:0.0506045;stroke-miterlimit:4;stroke-dasharray:none" />
    <use
       x="0"
       y="0"
       inkscape:tiled-clone-of="#rect971-6"
       xlink:href="#rect971-6"
       transform="matrix(1.0038625,0,0,1.0038625,65.26503,86.51568)"
       id="use535-4"
       width="100%"
       height="100%"
       style="stroke-width:0.0506045;stroke-miterlimit:4;stroke-dasharray:none" />
    <use
       x="0"
       y="0"
       inkscape:tiled-clone-of="#rect971-6"
       xlink:href="#rect971-6"
       transform="matrix(1.0038625,0,0,1.0038625,87.14316,-0.99686672)"
       id="use537-4"
       width="100%"
       height="100%"
       style="stroke-width:0.0506045;stroke-miterlimit:4;stroke-dasharray:none" />
    <use
       x="0"
       y="0"
       inkscape:tiled-clone-of="#rect971-6"
       xlink:href="#rect971-6"
       transform="matrix(1.0038625,0,0,1.0038625,87.14316,20.881272)"
       id="use539-5"
       width="100%"
       height="100%"
       style="stroke-width:0.0506045;stroke-miterlimit:4;stroke-dasharray:none" />
    <use
       x="0"
       y="0"
       inkscape:tiled-clone-of="#rect971-6"
       xlink:href="#rect971-6"
       transform="matrix(1.0038625,0,0,1.0038625,87.14316,42.759412)"
       id="use541-8"
       width="100%"
       height="100%"
       style="stroke-width:0.0506045;stroke-miterlimit:4;stroke-dasharray:none" />
    <use
       x="0"
       y="0"
       inkscape:tiled-clone-of="#rect971-6"
       xlink:href="#rect971-6"
       transform="matrix(1.0038625,0,0,1.0038625,87.14316,64.63754)"
       id="use543-4"
       width="100%"
       height="100%"
       style="stroke-width:0.0506045;stroke-miterlimit:4;stroke-dasharray:none" />
    <use
       x="0"
       y="0"
       inkscape:tiled-clone-of="#rect971-6"
       xlink:href="#rect971-6"
       transform="matrix(1.0038625,0,0,1.0038625,87.14316,86.51568)"
       id="use545-8"
       width="100%"
       height="100%"
       style="stroke-width:0.0506045;stroke-miterlimit:4;stroke-dasharray:none" />
    <rect
       style="fill:none;fill-rule:evenodd;stroke:#0000ff;stroke-width:0.0508;stroke-linecap:butt;stroke-linejoin:round;stroke-miterlimit:4;stroke-dasharray:none;stroke-opacity:1"
       id="rect913-4"
       width="137.54462"
       height="137.54462"
       x="9.0151958"
       y="171.46938"
       ry="3.8304749" />
  </g>
</svg>
